<svg width="422" height="189" viewBox="0 0 422 189" fill="none" xmlns="http://www.w3.org/2000/svg">
<path d="M73.7042 4.28658C71.954 4.28658 70.7872 4.48142 70.0093 4.87111C69.2314 5.2608 68.648 5.84534 68.4535 6.62472L56.2019 48.1268H46.8674L36.9494 17.1464L26.8369 48.1268H17.3079L5.44523 6.62472C5.25076 5.84534 4.66736 5.2608 3.88948 4.87111C3.1116 4.28658 1.94477 4.09173 0.777954 4.09173V0.38967H21.7807V4.09173H17.3079C16.1411 4.09173 15.5577 4.48142 15.5577 5.2608L25.0867 40.333L34.8102 7.79379C34.8102 7.59895 34.8102 7.4041 34.8102 7.20926C34.8102 7.01441 34.8102 6.81957 34.8102 6.62472C34.8102 4.87112 33.2545 3.89689 30.1429 3.89689V0.194824H49.9789V3.89689H45.5061C44.9227 3.89689 44.5337 4.09173 44.3392 4.28658C44.1448 4.48142 44.1448 4.87111 44.1448 5.2608C44.1448 5.84534 44.3392 6.62472 44.5337 7.59895L54.6462 40.333L63.9807 6.42987C63.9807 6.23503 63.9807 6.04018 63.9807 5.65049C63.9807 4.67627 63.2028 4.09173 61.4526 4.09173H58.3411V0.38967H74.0932V4.28658H73.7042Z" fill="#782B65"/>
<path d="M122.322 14.8082L117.849 15.0031C117.265 8.5732 114.543 5.26083 109.681 5.26083H95.2904V20.8485H102.68C105.208 20.8485 106.764 18.3155 107.153 13.0546H111.237L110.265 33.1237H106.375C105.986 27.8629 104.625 25.1351 102.291 25.1351H95.4849V43.0608H107.542C114.737 43.0608 118.627 38.3845 119.405 29.2268L124.072 29.6165L122.516 47.932H79.7328V44.2299C83.6222 44.2299 85.3724 43.2557 85.3724 41.3072V7.20928C85.3724 5.26083 83.4277 4.2866 79.7328 4.2866V0.584534H122.322V14.8082Z" fill="#782B65"/>
<path d="M206.722 4.2866C202.832 4.2866 201.082 5.26083 201.082 7.20928V48.3217H189.219L164.911 9.74227V41.6969C164.911 43.6454 166.855 44.6196 170.55 44.6196V48.3217H153.826V44.6196C157.715 44.6196 159.466 43.6454 159.466 41.6969V7.20928C159.466 5.26083 157.521 4.2866 153.826 4.2866V0.584534H170.939L195.443 40.1381V7.20928C195.443 5.26083 193.498 4.2866 189.803 4.2866V0.584534H206.527V4.2866H206.722Z" fill="#782B65"/>
<path d="M254.561 14.8082L250.089 15.0031C249.505 8.5732 246.783 5.26083 241.921 5.26083H227.53V20.8485H234.92C237.448 20.8485 239.004 18.3155 239.393 13.0546H243.477L242.504 33.1237H238.615C238.226 27.8629 236.865 25.1351 234.531 25.1351H227.53V43.0608H239.587C246.783 43.0608 250.672 38.3845 251.45 29.2268L256.117 29.6165L254.561 47.932H211.972V44.2299C215.862 44.2299 217.612 43.2557 217.612 41.3072V7.20928C217.612 5.26083 215.667 4.2866 211.972 4.2866V0.584534H254.561V14.8082Z" fill="#782B65"/>
<path d="M314.458 4.28656C312.513 4.28656 311.152 4.4814 310.374 4.67624C309.596 5.06593 309.013 5.45562 308.819 6.04016L292.872 48.1268H283.537L268.174 6.04016C267.98 5.45562 267.396 4.87109 266.424 4.67624C265.452 4.28655 264.285 4.28656 262.924 4.28656V0.584491H286.26V4.28656H280.62C279.454 4.28656 278.676 4.67624 278.676 5.45562C278.676 5.65047 278.676 6.04016 278.87 6.23501L291.122 40.5278L303.373 6.6247C303.568 6.23501 303.568 6.04016 303.568 5.65047C303.568 4.67624 302.596 4.09171 300.651 4.09171H296.761V0.389648H314.264L314.458 4.28656Z" fill="#782B65"/>
<path d="M363.076 14.8082L358.603 15.0031C358.019 8.5732 355.297 5.26083 350.435 5.26083H336.044V20.8485H343.434C345.962 20.8485 347.518 18.3155 347.907 13.0546H351.991L351.019 33.1237H347.129C346.74 27.8629 345.379 25.1351 343.045 25.1351H336.239V43.0608H348.296C355.491 43.0608 359.381 38.3845 360.159 29.2268L364.826 29.6165L363.27 47.932H320.681V44.2299C324.571 44.2299 326.321 43.2557 326.321 41.3072V7.20928C326.321 5.26083 324.376 4.2866 320.681 4.2866V0.584534H363.27V14.8082H363.076Z" fill="#782B65"/>
<path d="M421.028 41.1124C421.028 43.2557 420.444 45.0093 419.083 46.568C417.916 47.932 415.777 48.7113 412.666 48.7113C409.36 48.7113 407.026 47.932 405.47 46.3732C404.109 44.8144 403.331 42.866 403.331 40.5278V35.6567C403.331 32.1495 402.748 29.4216 401.775 27.8629C400.803 26.3041 398.858 25.3299 396.136 25.3299H386.412V41.5021C386.412 43.4505 388.746 44.4247 393.607 44.4247V48.1268H371.049V44.4247C374.938 44.4247 376.689 43.4505 376.689 41.5021V7.20928C376.689 5.26083 374.744 4.2866 371.049 4.2866V0.584534H398.664C400.803 0.584534 402.748 0.779381 404.887 0.974226C406.831 1.16907 408.776 1.75361 410.332 2.72783C411.888 3.50721 413.054 4.87113 414.027 6.42989C414.999 7.98866 415.388 10.132 415.388 12.6649C415.388 14.4186 415.194 15.7825 414.61 17.1464C414.027 18.3155 413.443 19.4845 412.666 20.4588C411.888 21.433 410.915 22.0175 409.748 22.6021C408.582 23.1866 407.609 23.5763 406.442 23.7711C407.609 24.1608 408.582 24.7454 409.36 25.3299C410.332 25.9144 410.915 26.6938 411.693 27.668C412.277 28.6423 412.86 29.8113 413.054 31.1753C413.443 32.5392 413.443 34.0979 413.443 36.0464V41.8918C413.443 42.866 413.638 43.4505 414.027 44.035C414.416 44.6196 414.999 44.6196 415.583 44.6196C416.166 44.6196 416.749 44.4247 417.138 44.035C417.527 43.6454 417.722 42.866 417.722 41.8918V38.7742H421.028V41.1124ZM386.607 5.84536V21.0433H397.108C399.636 21.0433 401.581 20.4588 402.942 19.2897C404.303 18.1206 405.081 16.1722 405.081 13.2495C405.081 8.37835 402.359 5.84536 397.108 5.84536H386.607V5.84536Z" fill="#782B65"/>
<path d="M73.7042 74.4309C71.954 74.4309 70.7872 74.6258 70.0093 75.0155C69.2314 75.4052 68.648 75.9897 68.4535 76.7691L56.2019 118.271H46.8674L36.9494 87.2907L26.8369 118.271H17.3079L5.44523 76.7691C5.25076 75.9897 4.66736 75.4052 3.88948 75.0155C3.1116 74.4309 1.94477 74.2361 0.777954 74.2361V70.534H21.7807V74.2361H17.3079C16.1411 74.2361 15.5577 74.6258 15.5577 75.4051L25.0867 110.477L34.8102 77.9381C34.8102 77.7433 34.8102 77.5484 34.8102 77.3536C34.8102 77.1588 34.8102 76.9639 34.8102 76.7691C34.8102 75.0155 33.2545 74.0412 30.1429 74.0412V70.3392H49.9789V74.0412H45.5061C44.9227 74.0412 44.5337 74.2361 44.3392 74.4309C44.1448 74.6258 44.1448 75.0155 44.1448 75.4051C44.1448 75.9897 44.3392 76.7691 44.5337 77.7433L54.6462 110.477L63.9807 76.5742C63.9807 76.3794 63.9807 76.1845 63.9807 75.7948C63.9807 74.8206 63.2028 74.2361 61.4526 74.2361H58.3411V70.534H74.0932V74.4309H73.7042Z" fill="#782B65"/>
<path d="M111.431 112.621C111.82 113.985 113.571 114.569 116.682 114.569V118.271H93.1512V114.569H98.7908C99.9576 114.569 100.735 114.179 100.735 113.4C100.735 113.205 100.735 113.01 100.541 112.621L98.0129 105.606H78.177L75.8433 112.231C75.8433 112.426 75.6489 112.815 75.6489 113.01C75.6489 114.179 76.6212 114.764 78.5659 114.764H82.4553V118.466H64.953V114.764C66.7032 114.764 68.0645 114.569 68.8424 114.374C69.6203 113.985 70.2037 113.595 70.3982 113.01L86.3447 70.9237H95.6793L111.431 112.621ZM79.9272 100.93H96.2627L88.0949 78.3278L79.9272 100.93Z" fill="#782B65"/>
<path d="M175.607 74.4309C171.717 74.4309 169.967 75.4052 169.967 77.3536V118.466H158.104L133.795 79.8866V111.841C133.795 113.79 135.74 114.764 139.435 114.764V118.466H122.711V114.764C126.6 114.764 128.35 113.79 128.35 111.841V77.3536C128.35 75.4052 126.406 74.4309 122.711 74.4309V70.7289H139.824L164.327 110.282V77.3536C164.327 75.4052 162.383 74.4309 158.688 74.4309V70.7289H175.412V74.4309H175.607Z" fill="#782B65"/>
<path d="M228.891 90.2133L224.807 90.4082C224.613 87.4855 224.418 85.1473 223.835 83.1989C223.446 81.2504 222.863 79.6917 222.085 78.7175C221.307 77.5484 220.335 76.769 219.362 76.3793C218.195 75.9896 217.029 75.7948 215.473 75.7948H209.639V111.841C209.639 113.79 211.583 114.764 215.473 114.764V118.466H194.081V114.764C197.971 114.764 199.721 113.79 199.721 111.841V75.5999H193.887C192.525 75.5999 191.164 75.7948 190.192 76.1845C189.025 76.5741 188.247 77.3535 187.469 78.5226C186.691 79.6917 186.108 81.2504 185.719 83.004C185.33 84.9525 184.941 87.2906 184.747 90.2133L180.663 90.0185V70.5339H228.697V90.2133H228.891Z" fill="#782B65"/>
<path d="M277.509 84.9526L273.036 85.1474C272.453 78.7175 269.73 75.4052 264.868 75.4052H250.478V90.9928H257.867C260.396 90.9928 261.951 88.4598 262.34 83.199H266.424L265.452 103.268H261.562C261.173 98.0072 259.812 95.2794 257.478 95.2794H250.672V113.205H262.729C269.925 113.205 273.814 108.529 274.592 99.3711L279.259 99.7608L277.703 118.076H235.114V114.374C239.004 114.374 240.754 113.4 240.754 111.452V77.3536C240.754 75.4052 238.809 74.4309 235.114 74.4309V70.7289H277.703V84.9526H277.509Z" fill="#782B65"/>
<path d="M310.763 70.5339C314.653 70.5339 318.153 70.7288 321.07 71.3133C323.987 71.8979 326.515 73.0669 328.46 74.6257C330.405 76.1845 331.96 78.5226 332.933 81.4453C333.905 84.368 334.488 88.2649 334.488 92.9412C334.488 97.8123 333.905 101.709 332.933 105.022C331.96 108.334 330.405 110.867 328.46 112.815C326.515 114.764 323.987 116.128 321.07 116.907C318.153 117.687 314.653 118.076 310.763 118.076H285.677V114.374C289.566 114.374 291.316 113.4 291.316 111.451V77.3535C291.316 75.4051 289.371 74.4308 285.677 74.4308V70.7288L310.763 70.5339ZM301.234 75.5999V113.205H311.736C314.069 113.205 316.208 112.815 317.764 111.841C319.32 110.867 320.681 109.698 321.653 107.944C322.626 106.191 323.209 104.242 323.598 101.709C323.987 99.1762 324.182 96.4484 324.182 93.136C324.182 90.0185 323.987 87.2906 323.598 84.9525C323.209 82.6144 322.626 80.8608 321.653 79.4968C320.681 78.1329 319.32 76.9638 317.764 76.3793C316.208 75.7948 314.069 75.4051 311.736 75.4051H301.234V75.5999Z" fill="#782B65"/>
<path d="M53.4794 144.575C49.5899 144.575 47.6452 145.549 47.6452 147.498V181.791C47.6452 183.739 49.5899 184.713 53.4794 184.713V188.415H31.8932V184.713C35.977 184.713 37.9217 183.739 37.9217 181.791V165.813H16.1411V181.791C16.1411 183.739 18.0858 184.713 22.1697 184.713V188.415H0.583496V184.713C4.4729 184.713 6.22313 183.739 6.22313 181.791V147.498C6.22313 145.549 4.27843 144.575 0.583496 144.575V140.873H22.1697V144.575C18.0858 144.575 16.1411 145.549 16.1411 147.498V161.137H37.9217V147.498C37.9217 145.549 35.977 144.575 31.8932 144.575V140.873H53.4794V144.575Z" fill="#782B65"/>
<path d="M81.2886 144.575C77.3992 144.575 75.6489 145.549 75.6489 147.498V181.791C75.6489 183.739 77.5936 184.713 81.2886 184.713V188.415H59.8969V184.713C63.7863 184.713 65.731 183.739 65.731 181.791V147.498C65.731 145.549 63.7863 144.575 59.8969 144.575V140.873H81.2886V144.575Z" fill="#782B65"/>
<path d="M150.909 144.575C147.019 144.575 145.075 145.549 145.075 147.498V181.791C145.075 183.739 147.019 184.713 150.909 184.713V188.415H129.906V184.713C133.795 184.713 135.546 183.739 135.546 181.791V148.082L121.544 188.415H113.182L99.1798 148.082V181.791C99.1798 183.739 101.124 184.713 104.819 184.713V188.415H88.095V184.713C91.9844 184.713 93.7346 183.739 93.7346 181.791V147.498C93.7346 145.549 91.7899 144.575 88.095 144.575V140.873H107.153L119.794 178.478L132.434 140.873H150.714V144.575H150.909Z" fill="#782B65"/>
<path d="M233.17 144.575C229.28 144.575 227.336 145.549 227.336 147.498V181.791C227.336 183.739 229.28 184.713 233.17 184.713V188.415H211.583V184.713C215.667 184.713 217.612 183.739 217.612 181.791V165.813H195.831V181.791C195.831 183.739 197.776 184.713 201.86 184.713V188.415H180.274V184.713C184.163 184.713 185.913 183.739 185.913 181.791V147.498C185.913 145.549 183.969 144.575 180.274 144.575V140.873H201.86V144.575C197.776 144.575 195.831 145.549 195.831 147.498V161.137H217.612V147.498C217.612 145.549 215.667 144.575 211.583 144.575V140.873H233.17V144.575Z" fill="#782B65"/>
<path d="M281.787 155.097L277.314 155.292C276.731 148.862 274.008 145.549 269.147 145.549H254.756V161.137H262.146C264.674 161.137 266.23 158.604 266.619 153.343H270.702L269.73 173.412H265.841C265.452 168.151 264.09 165.424 261.757 165.424H254.756V183.349H266.813C274.008 183.349 277.898 178.673 278.676 169.515L283.343 169.905L281.787 188.221H239.198V184.518C243.088 184.518 244.838 183.544 244.838 181.596V147.303C244.838 145.355 242.893 144.38 239.198 144.38V140.678H281.787V155.097Z" fill="#782B65"/>
<path d="M339.934 181.401C339.934 183.544 339.35 185.298 337.989 186.857C336.822 188.221 334.683 189 331.572 189C328.266 189 325.932 188.221 324.376 186.662C323.015 185.103 322.237 183.155 322.237 180.816V175.945C322.237 172.438 321.654 169.71 320.681 168.152C319.709 166.593 317.764 165.619 315.042 165.619H305.318V181.791C305.318 183.739 307.652 184.713 312.513 184.713V188.415H289.955V184.713C293.844 184.713 295.595 183.739 295.595 181.791V147.498C295.595 145.549 293.65 144.575 289.955 144.575V140.873H317.375C319.514 140.873 321.459 141.068 323.598 141.263C325.543 141.458 327.488 142.042 329.043 143.016C330.599 143.796 331.766 145.16 332.738 146.719C333.711 148.277 334.1 150.421 334.1 152.954C334.1 154.707 333.905 156.071 333.322 157.435C332.738 158.604 332.155 159.773 331.377 160.747C330.599 161.722 329.627 162.306 328.46 162.891C327.293 163.475 326.321 163.865 325.154 164.06C326.321 164.449 327.293 165.034 328.071 165.619C329.043 166.203 329.627 166.982 330.405 167.957C330.988 168.931 331.572 170.1 331.766 171.464C332.155 172.828 332.155 174.387 332.155 176.335V182.18C332.155 183.155 332.349 183.739 332.738 184.324C333.127 184.908 333.711 184.908 334.294 184.908C334.877 184.908 335.461 184.713 335.85 184.324C336.239 183.934 336.433 183.155 336.433 182.18V179.063H339.739V181.401H339.934ZM305.513 146.134V161.332H316.014C318.542 161.332 320.487 160.747 321.848 159.578C323.209 158.409 323.987 156.461 323.987 153.538C323.987 148.667 321.265 146.134 316.014 146.134H305.513Z" fill="#782B65"/>
<path d="M387.773 155.097L383.301 155.292C382.717 148.862 379.995 145.549 375.133 145.549H360.742V161.137H368.132C370.66 161.137 372.216 158.604 372.605 153.343H376.689L375.716 173.412H371.827C371.438 168.151 370.077 165.424 367.743 165.424H360.937V183.349H372.994C380.189 183.349 384.078 178.673 384.856 169.515L389.524 169.905L387.968 188.221H345.379V184.518C349.268 184.518 351.019 183.544 351.019 181.596V147.303C351.019 145.355 349.074 144.38 345.379 144.38V140.678H387.968V155.097H387.773Z" fill="#782B65"/>
</svg>
