<svg width="118" height="64" viewBox="0 0 118 64" fill="none" xmlns="http://www.w3.org/2000/svg">
<path opacity="0.9" d="M13.977 50.8631H13.954C14.0686 50.5712 14.1603 50.2793 14.2748 49.9873C14.3206 49.8975 14.3436 49.8077 14.3894 49.6954C14.4581 49.4933 14.5498 49.2912 14.6185 49.0891C14.6643 48.9768 14.7102 48.8645 14.756 48.7523C14.8247 48.5726 14.8935 48.3705 14.9851 48.1909C15.0309 48.0786 15.0768 47.9663 15.1226 47.854C15.1913 47.6744 15.2601 47.4723 15.3517 47.2926C15.3975 47.1803 15.4434 47.068 15.4892 46.9558C15.5579 46.7537 15.6496 46.574 15.7183 46.3719C15.7641 46.2596 15.81 46.1698 15.8558 46.0575C15.9474 45.833 16.0391 45.6084 16.1307 45.4063C16.1537 45.3165 16.1995 45.2491 16.2224 45.1593C16.337 44.8673 16.4515 44.5754 16.5661 44.2835C16.5661 44.261 16.5661 44.261 16.589 44.2386C16.7265 43.9242 16.8639 43.5873 16.9785 43.273C17.2993 42.2849 17.5055 41.6337 17.5055 41.6337L24.0585 24.4098C24.0585 24.4098 25.8228 16.3256 25.3187 13.8554C25.1583 13.8554 24.9979 13.8779 24.8375 13.8779C24.5168 13.9003 24.196 13.9228 23.8523 13.9677C23.5086 14.0126 23.1649 14.0351 22.8212 14.0575C22.4775 14.1024 22.1109 14.1249 21.7673 14.1698C21.4006 14.2147 21.057 14.2372 20.6904 14.2821C19.9572 14.3494 19.2469 14.4168 18.5137 14.4842C18.3304 14.5066 18.1471 14.5066 17.9867 14.5291C17.6201 14.5515 17.2764 14.574 16.9327 14.5965C16.841 14.5965 16.7723 14.5965 16.6806 14.6189C16.2453 14.6414 15.81 14.6638 15.3975 14.6638C15.2371 14.6638 15.0768 14.6638 14.9164 14.6414L13.6791 15.4498L13.702 15.7417C13.702 15.8765 13.7249 16.0337 13.7249 16.1908C13.7478 18.4365 12.9688 21.5803 11.7315 25.1508C11.5711 25.6224 11.3878 26.1165 11.2274 26.6105C9.37152 31.7754 6.78239 37.7038 4.55986 43.273C4.03287 44.5979 3.5288 45.9003 3.04763 47.1579C2.10821 49.6954 1.30627 52.0758 0.756367 54.1866C0.595978 54.8154 0.458503 55.4217 0.34394 56.0056C0.183551 56.7916 0.0919009 57.5101 0.0460756 58.1838C0.023163 58.5207 0.000249857 58.8351 0.0231625 59.1495C0.0231625 59.3066 0.023163 59.4414 0.0460756 59.5986C0.0689883 60.0477 0.160639 60.3845 0.275202 60.654C0.481416 61.1031 0.802193 61.3277 1.23753 61.44L8.56957 63.4161L10.1505 63.8428L11.4337 62.8772L11.342 61.5523C11.2733 61.5073 12.6709 54.6133 13.977 50.8631Z" fill="black" fill-opacity="0.8"/>
<g opacity="0.9">
<path opacity="0.9" d="M20.5753 63.2364C31.5963 62.5403 44.4045 42.8238 43.4421 28.407C43.0068 21.7824 36.2934 14.7536 32.1004 14.0575C29.9695 13.7431 27.7012 13.7431 25.3183 13.9003C22.8437 14.0575 19.7047 14.4842 16.9322 14.6638C16.2678 14.7087 15.5117 14.7536 14.893 14.7087L13.6557 15.5172L13.6786 15.8091C13.8161 18.0098 13.06 21.1761 11.8227 24.8365L17.5967 25.555L24.0581 24.4547C25.0204 24.32 28.0678 23.6014 30.2445 23.4666C30.8402 23.4217 31.3672 23.4666 31.8254 23.5115C32.6503 36.0196 23.1416 51.8961 15.3513 54.8379C15.672 54.0743 15.7637 53.1087 15.7179 52.4575C15.672 51.8736 15.3513 51.3796 14.6639 51.2L13.9765 50.9529C14.0223 50.8407 14.0453 50.7508 14.0911 50.6386L13.335 50.7733C13.335 50.7733 8.45457 50.2793 8.36292 51.7614C8.27127 53.2659 6.73613 56.3424 8.56914 58.4308C10.4021 60.5193 11.2957 61.6196 11.2957 61.6196C13.9765 62.8547 18.0091 63.3936 20.5753 63.2364Z" fill="black" fill-opacity="0.8"/>
</g>
<path opacity="0.8" d="M99.0285 6.73683C98.9368 5.34455 98.7077 4.01963 97.6996 3.7277L88.5116 1.34735L87.2285 2.31296L87.2743 2.89682C87.8929 12.3059 72.9997 37.7712 73.6184 47.0232C73.6871 48.1909 74.0995 48.6849 74.7869 48.8646L83.9749 51.2449L85.258 50.2793L85.2122 49.6954C84.9372 45.4288 87.8242 37.861 91.0778 29.9789L99.2347 8.82525C99.1431 8.21893 99.0972 7.52279 99.0285 6.73683Z" fill="black" fill-opacity="0.8"/>
<path opacity="0.9" d="M93.5067 24.6344C96.829 23.534 101.503 22.4337 103.313 21.3558L104.573 22.1642L107.598 30.2484C108.331 32.1123 97.4476 33.9986 94.469 35.7951L93.2088 34.9867L91.307 30.0239L90.1843 26.6779L90.9404 25.2631L93.5067 24.6344Z" fill="black" fill-opacity="0.8"/>
<path opacity="0.8" d="M117.954 4.01962C117.908 3.2112 117.496 2.71716 116.259 2.42523L107.598 0.157166L106.315 1.12278L106.361 1.70664C106.613 5.45682 104.917 10.734 100.541 12.7775C99.8075 11.9466 99.418 10.8463 99.166 9.0498L99.2576 8.82524C99.2576 8.80278 99.2576 8.75787 99.2576 8.73541C99.1889 8.15155 99.1201 7.47787 99.0743 6.73682C98.9827 5.34454 98.7536 4.01963 97.7454 3.7277L88.5116 1.34734L87.2285 2.31295L87.2514 2.82945C87.8013 4.35647 90.1613 10.0154 96.7831 15.0456C96.806 15.068 96.806 15.0681 96.8289 15.0905C96.8289 15.0905 96.8518 15.0905 96.8518 15.113C99.3722 17.7628 103.611 19.4021 107.369 19.1775C113.738 18.7509 118.344 9.9705 117.954 4.01962Z" fill="black" fill-opacity="0.8"/>
<path opacity="0.8" d="M73.733 28.654C72.7935 29.1481 71.6021 29.4625 70.2502 29.5298C68.2339 29.6646 65.8739 29.44 63.4452 29.0807L58.9543 28.407C56.2965 28.0477 53.799 27.7783 51.8285 27.8905C49.8122 28.0253 48.4145 28.5418 47.8875 29.8442L45.1838 36.873L46.6732 37.8161C47.3147 37.4119 48.3687 37.1873 49.5601 37.12C51.5077 37.0077 54.0052 37.2098 56.5943 37.5691C56.5714 37.6365 56.5714 37.7038 56.5485 37.7712L56.6631 37.5242L61.1539 38.1305V38.1754C63.7201 38.5347 66.2176 38.7368 68.1652 38.6245C70.3419 38.4898 71.9687 37.9509 72.4728 36.581L75.1765 29.6196L73.733 28.654Z" fill="black" fill-opacity="0.8"/>
<g opacity="0.8">
<path opacity="0.8" d="M65.4615 18.167L63.8347 17.4484C61.7725 20.6147 60.1457 24.4098 58.9085 28.3846L56.5714 37.5467C55.7236 41.9481 55.3112 45.833 55.2424 48.1909L57.0067 48.5277C58.5189 46.2821 59.9166 42.4421 61.1539 38.153L63.4222 29.0807C64.6595 23.0849 65.4615 18.167 65.4615 18.167Z" fill="black" fill-opacity="0.8"/>
</g>
</svg>
