<svg width="83" height="45" viewBox="0 0 83 45" fill="none" xmlns="http://www.w3.org/2000/svg">
<path opacity="0.9" d="M9.83115 35.7632H9.81504C9.89562 35.5579 9.96009 35.3527 10.0407 35.1474C10.0729 35.0842 10.089 35.0211 10.1213 34.9421C10.1696 34.8 10.2341 34.6579 10.2824 34.5158C10.3146 34.4369 10.3469 34.3579 10.3791 34.279C10.4275 34.1527 10.4758 34.0105 10.5403 33.8842C10.5725 33.8053 10.6047 33.7263 10.637 33.6474C10.6853 33.5211 10.7337 33.379 10.7981 33.2527C10.8304 33.1737 10.8626 33.0948 10.8948 33.0158C10.9432 32.8737 11.0077 32.7474 11.056 32.6053C11.0882 32.5263 11.1205 32.4632 11.1527 32.3842C11.2172 32.2263 11.2816 32.0684 11.3461 31.9263C11.3622 31.8632 11.3945 31.8158 11.4106 31.7527C11.4912 31.5474 11.5717 31.3421 11.6523 31.1369C11.6523 31.1211 11.6523 31.1211 11.6684 31.1053C11.7651 30.8842 11.8618 30.6474 11.9424 30.4263C12.168 29.7316 12.3131 29.2737 12.3131 29.2737L16.9224 17.1632C16.9224 17.1632 18.1634 11.479 17.8088 9.74213C17.696 9.74213 17.5832 9.75791 17.4704 9.75791C17.2447 9.7737 17.0191 9.78949 16.7774 9.82107C16.5356 9.85265 16.2939 9.86844 16.0521 9.88423C15.8104 9.91581 15.5525 9.9316 15.3108 9.96318C15.0529 9.99476 14.8112 10.0105 14.5533 10.0421C14.0376 10.0895 13.538 10.1369 13.0222 10.1842C12.8933 10.2 12.7644 10.2 12.6515 10.2158C12.3937 10.2316 12.1519 10.2474 11.9102 10.2632C11.8457 10.2632 11.7974 10.2632 11.7329 10.279C11.4267 10.2948 11.1205 10.3105 10.8304 10.3105C10.7176 10.3105 10.6047 10.3105 10.4919 10.2948L9.62164 10.8632L9.63776 11.0684C9.63776 11.1632 9.65387 11.2737 9.65387 11.3842C9.66999 12.9632 9.12203 15.1737 8.25173 17.6842C8.13892 18.0158 8.00999 18.3632 7.89717 18.7105C6.59173 22.3421 4.77057 26.5105 3.20727 30.4263C2.83659 31.3579 2.48202 32.2737 2.14358 33.1579C1.4828 34.9421 0.918722 36.6158 0.531926 38.1C0.41911 38.5421 0.322411 38.9684 0.241829 39.379C0.129013 39.9316 0.064547 40.4369 0.032314 40.9105C0.0161975 41.1474 8.05743e-05 41.3684 0.0161971 41.5895C0.0161971 41.7 0.0161975 41.7948 0.032314 41.9053C0.0484305 42.2211 0.112897 42.4579 0.193479 42.6474C0.338528 42.9632 0.564159 43.1211 0.870373 43.2L6.02766 44.5895L7.1397 44.8895L8.04222 44.2106L7.97775 43.279C7.9294 43.2474 8.91251 38.4 9.83115 35.7632Z" fill="white" fill-opacity="0.8"/>
<g opacity="0.9">
<path opacity="0.9" d="M14.4726 44.4631C22.2246 43.9736 31.2337 30.1105 30.5568 19.9736C30.2506 15.3158 25.5285 10.3737 22.5792 9.88418C21.0803 9.66312 19.4848 9.66312 17.8087 9.77365C16.0681 9.88418 13.8601 10.1842 11.9101 10.3105C11.4427 10.3421 10.9108 10.3736 10.4757 10.3421L9.60539 10.9105L9.62151 11.1158C9.71821 12.6631 9.18636 14.8894 8.31607 17.4631L12.3774 17.9684L16.9223 17.1947C17.5992 17.1 19.7427 16.5947 21.2737 16.5C21.6928 16.4684 22.0634 16.5 22.3858 16.5315C22.966 25.3263 16.2776 36.4894 10.798 38.5579C11.0236 38.021 11.0881 37.3421 11.0559 36.8842C11.0236 36.4737 10.798 36.1263 10.3145 36L9.83102 35.8263C9.86326 35.7473 9.87937 35.6842 9.9116 35.6052L9.37976 35.7C9.37976 35.7 5.94695 35.3526 5.88248 36.3947C5.81801 37.4526 4.73821 39.6158 6.02753 41.0842C7.31685 42.5526 7.94539 43.3263 7.94539 43.3263C9.83102 44.1947 12.6675 44.5736 14.4726 44.4631Z" fill="white" fill-opacity="0.8"/>
</g>
<path opacity="0.8" d="M69.6556 4.73686C69.5911 3.75791 69.43 2.82634 68.7208 2.62107L62.2581 0.947388L61.3556 1.62633L61.3878 2.03686C61.823 8.65265 51.3472 26.5579 51.7824 33.0632C51.8307 33.8842 52.1208 34.2316 52.6043 34.3579L59.067 36.0316L59.9696 35.3527L59.9373 34.9421C59.7439 31.9421 61.7746 26.6211 64.0632 21.079L69.8006 6.20528C69.7362 5.77897 69.7039 5.28949 69.6556 4.73686Z" fill="white" fill-opacity="0.8"/>
<path opacity="0.9" d="M65.7715 17.3211C68.1084 16.5474 71.3961 15.7737 72.6693 15.0158L73.5557 15.5842L75.6831 21.2684C76.1989 22.579 68.5435 23.9053 66.4484 25.1684L65.5619 24.6L64.2243 21.1105L63.4346 18.7579L63.9664 17.7632L65.7715 17.3211Z" fill="white" fill-opacity="0.8"/>
<path opacity="0.8" d="M82.9678 2.82632C82.9356 2.2579 82.6455 1.91053 81.7752 1.70527L75.6831 0.110535L74.7806 0.789483L74.8129 1.20001C74.9901 3.83685 73.7975 7.54738 70.7193 8.98422C70.2035 8.40001 69.9296 7.62633 69.7523 6.36317L69.8167 6.20527C69.8167 6.18948 69.8167 6.15791 69.8167 6.14212C69.7684 5.73159 69.72 5.25791 69.6878 4.73685C69.6233 3.75791 69.4622 2.82633 68.7531 2.62106L62.2581 0.947378L61.3556 1.62632L61.3717 1.98948C61.7585 3.06317 63.4185 7.04212 68.0762 10.579C68.0923 10.5948 68.0923 10.5948 68.1084 10.6105C68.1084 10.6105 68.1245 10.6105 68.1245 10.6263C69.8973 12.4895 72.8789 13.6421 75.522 13.4842C80.0024 13.1842 83.2418 7.01054 82.9678 2.82632Z" fill="white" fill-opacity="0.8"/>
<path opacity="0.8" d="M51.8629 20.1474C51.2021 20.4947 50.3641 20.7158 49.4132 20.7632C47.9949 20.8579 46.3349 20.7 44.6266 20.4474L41.4678 19.9737C39.5982 19.7211 37.8415 19.5316 36.4555 19.6105C35.0373 19.7053 34.0542 20.0684 33.6835 20.9842L31.7817 25.9263L32.8293 26.5895C33.2806 26.3053 34.0219 26.1474 34.86 26.1C36.2299 26.021 37.9866 26.1631 39.8078 26.4158C39.7916 26.4631 39.7916 26.5105 39.7755 26.5579L39.8561 26.3842L43.0149 26.8105V26.8421C44.82 27.0947 46.5767 27.2368 47.9466 27.1579C49.4777 27.0631 50.6219 26.6842 50.9765 25.721L52.8782 20.8263L51.8629 20.1474Z" fill="white" fill-opacity="0.8"/>
<g opacity="0.8">
<path opacity="0.8" d="M46.0448 12.7737L44.9005 12.2684C43.45 14.4947 42.3057 17.1632 41.4355 19.9579L39.7916 26.4C39.1953 29.4948 38.9052 32.2263 38.8568 33.8842L40.0978 34.1211C41.1615 32.5421 42.1446 29.8421 43.0149 26.8263L44.6104 20.4474C45.4807 16.2316 46.0448 12.7737 46.0448 12.7737Z" fill="white" fill-opacity="0.8"/>
</g>
</svg>
